<?xml version="1.0" encoding="UTF-8"?>
<svg version="1.1" viewBox="0 0 2000 2000" width="500" height="500" xmlns="http://www.w3.org/2000/svg">
<path transform="translate(989,154)" d="m0 0h20l14 3 16 8 10 8 10 10 8 13 5 12 2 10v19l-3 15-5 11-6 10-11 12-10 7-14 7-12 3-11 1 6 16 11 30 15 38 19 48 13 31 15 35 13 30 19 42 20 41 12 23 15 28 16 27 10 16 11 16 14 19 13 16 12 14 16 16 8 7 12 10 18 13 19 12 19 10 14 6-1 3-12 5-37 19-19 10-15 8-40 20-7-1-25-13-24-14-19-12-16-11-18-13-14-11-10-9-11-9-9-9-8-7-24-24-7-8-12-14-10-12-14-19-14-20-11-17-15-25-15-29-11-25-14-37-9-27 1-6 12-31 17-45 10-25 15-38 12-29 15-37 11-27 2-5-11-1-16-5-11-6-9-7-10-10-8-13-5-12-3-14v-15l4-16 6-12 9-12 4-5 13-10 14-7z" fill="#67AB2E"/>
<path transform="translate(785,1059)" d="m0 0 6 1 30 15 24 14 16 10 20 14 16 12 11 9 14 12 26 24 13 13 7 8 13 14 11 14 14 18 12 17 14 21 15 26 12 23 8 16 9 20 13 35 9 27v7l-5 12-16 43-18 46-14 37-20 49-17 43-4 10v2l16 3 12 5 11 6 12 11 9 12 6 13 4 16v19l-4 16-9 17-12 13-11 8-12 6-10 3-8 1h-19l-14-3-16-8-11-8-10-11-8-14-5-15-1-5v-21l4-15 6-12 8-11 8-8 14-9 15-6 20-4-5-14-15-41-18-45-11-28-31-75-14-32-19-42-17-35-14-28-13-23-9-17-14-23-16-24-12-16-11-14-11-13-21-21-11-9-17-13-17-11-16-9-15-8-9-4v-2l29-14 33-17 18-10 31-16z" fill="#DE6F16"/>
<path transform="translate(854,651)" d="m0 0 4 2 8 16 17 33 12 22 14 26 15 27v5l-5 8-12 21-12 20-14 21-12 17-18 22-11 13-11 12-20 20-8 7-13 12-11 9-12 10-12 9-17 12-23 15-21 12-24 13-15 8-23 10-30 11-24 8-26 7-10-4-30-11-45-17-37-14-38-15-47-18-30-11-5-2v-3l37-12 92-35 44-18 31-13 49-22 24-11 33-16 28-14 22-12 29-16 22-14 19-13 18-13 16-13 10-9 8-7 11-11 9-11 10-13 10-15 14-25 8-17z" fill="#018CC6"/>
<path transform="translate(1441,897)" d="m0 0h7l46 17 27 10 41 16 56 22 37 15 31 12 5 2v2l-8 3-37 12-37 13-46 17-38 15-37 15-38 16-32 14-38 18-52 26-23 13-20 12-30 20-18 13-13 11-8 7-10 9-7 7-18 22-14 21-14 25-7 16h-3l-12-22-18-36-12-22-16-30-6-10 1-5 14-29 13-22 18-27 14-19 11-13 9-11 12-13 33-33 8-7 13-11 18-14 18-13 15-10 19-12 16-9 22-12 28-13 25-10 26-9z" fill="#DE6F16"/>
<path transform="translate(989,154)" d="m0 0h20l14 3 16 8 10 8 10 10 8 13 5 12 2 10v19l-3 15-5 11-6 10-11 12-10 7-14 7-12 3-11 1 6 16 9 25v3l-4-1-3-9v-2h-2l-1-9h-2l-3-10v-3l-2 1-3-3-3 1 1-7 1-2-11-1-16-5-11-6-9-7-10-10-8-13-5-12-3-14v-15l4-16 6-12 9-12 4-5 13-10 14-7z" fill="#4A991D"/>
<path transform="translate(217,915)" d="m0 0h27l15 4 14 8 11 9 8 9 6 10 5 13 3 19-2 16-3 12-6 12-8 11-7 7-14 9-15 6-15 3h-14l-16-4-10-4-10-6-11-9-8-10-8-16-4-13v-26l4-14 7-13 8-10 7-7 10-7 10-5z" fill="#018CC6"/>
<path transform="translate(1761,915)" d="m0 0h12l20 4 16 8 14 12 8 11 7 14 4 14v20l-4 16-8 16-9 11-12 10-14 7-21 5h-13l-12-2-16-6-11-7-10-9-8-10-8-17-3-11-1-16 3-15 6-16 8-12 5-6 13-10 12-6 15-4z" fill="#DE6F16"/>
<path transform="translate(1104,557)" d="m0 0 3 3 19 40 20 39 12 22 10 18 14 23 15 22 14 19 13 16 12 14 16 16 8 7 12 10 18 13 19 12 19 10 14 6-1 3-6 2h-6l-7-2-19-4-35-7-30-7-31-9-20-7-12-5-26-11-16-8-3-1v-2l-5-1-8-5-8-4-13-8-5-4-1-2-3-2-1-2-3-1-3-5 3-1v-3h2v3l2 1-1-6 2-2h5l4-4 1 2 3-2 2-5 9-7 3 1 1-6 5-5 6-9v-7l3-2h4v-11h4l4 1 6-2 1-10 2-2v-15l-4-8-2-7-2-4-1-5-2-2v-4l-4-1-4-9-3-9-9-15-4-8-2-5v-4h-2l-3-9-5-10-1-5z" fill="#4A991D"/>
<path transform="translate(854,651)" d="m0 0 4 2 8 16 17 33 12 22 14 26 15 27v5l-5 8-12 21-12 20-14 21-12 17-18 22-11 13-11 12-20 20-8 7-13 12-11 9-12 10-12 9-17 12-23 15-21 12-15 8-1-4 7-9 1-2h2v-2h2l2-4 12-12h2l2-4 10-9 5-6h2l2-4 8-9h2l2-5 9-10 6-10 7-11 12-19 12-18 5-9 11-14 8-10 4-7 1-2h2l2-5 4-9 5-11 5-10 8-12 5-3 10-2 5-2 8 4 1 3h12l5 1 6-1v-2l7-1 9-6 4-18-1-10-3-4v-4h-2l-5-10-1-8h-2l-4-10-8-16-7-16-7-12-4-7-7-11-1-4h-2l-1-3h-3l-3 7-8 16-7 11-3 4-3 5-2 3h-2l2-5 12-20 12-23z" fill="#0375B0"/>
<path transform="translate(618,562)" d="m0 0h21l12 4 11 6 10 9 6 7 8 16 3 11v14l-3 14-8 16-9 10-10 7-14 6-10 2h-17l-14-4-15-8-11-11-8-14-4-11-1-7v-11l4-16 7-14 11-12 11-7 8-4z" fill="#018CC6"/>
<path transform="translate(1360,562)" d="m0 0h18l12 3 14 7 10 8 9 13 5 12 2 8v20l-3 12-5 10-7 9-10 9-14 7-14 4h-18l-13-4-15-8-9-8-9-14-5-14-1-6v-12l3-14 5-12 8-10 8-8 11-7 12-4z" fill="#4A991D"/>
<path transform="translate(1360,1299)" d="m0 0h18l15 4 12 7 10 9 7 9 6 13 3 13v13l-3 13-8 15-11 12-10 7-14 5-12 2-16-1-10-3-12-6-10-8-7-9-8-16-3-16 1-13 4-13 6-11 11-12 10-7 12-5z" fill="#DE6F16"/>
<path transform="translate(618,1299)" d="m0 0h20l16 5 10 6 10 9 7 9 5 10 3 10 1 16-3 16-7 14-9 11-13 9-14 5-17 2-14-2-11-4-12-7-10-10-8-14-4-11-1-4v-18l4-15 6-11 11-12 8-6 10-5z" fill="#DE6F16"/>
<path transform="translate(989,154)" d="m0 0h20v1h-6v2h2v3l5 1 1 2 9 5 2 5 3 5v9l2 1v4h-2v2h-3l-1 5-4 5-2 6-4 4-4 5-3 1-3 5h-2l-1 3h-2l-2 6-1 8h-2l-1 6h-2l-1 3-6 5-7 1-2 2h-13l-4-1-3 1-6-3-3-3h-5l-1 2-5-12-5-2-3-6h-1v-15l4-16 6-12 9-12 4-5 13-10 14-7z" fill="#67AB2E"/>
<path transform="translate(262,922)" d="m0 0 5 1 11 8 10 9 7 10 6 12 4 16 1 9-2 16-3 12-6 12-8 11-7 7-14 9-15 6-16 3-9-1 3-5 12-5 17-17 1-2h2l2-4 7-8 5-5 6-7 5-10 2-7v-13l1-14-3-12v-4h-2l-2-4v-3h-2l-2-4-3-2v-3l-3-1-4-5-5-3z" fill="#0376B0"/>
<path transform="translate(655,569)" d="m0 0 6 2 12 11 6 8 7 14 3 11v14l-3 14-8 16-9 10-10 7-14 6-10 2h-17l-3-1 1-4 2-2 16-3 9-5 4-9 7-13 3-9 5-9 10-19 3-7-4-14-7-11-2-1v-2l-4-2-3-2z" fill="#0376B0"/>
<path transform="translate(1e3 314)" d="m0 0 2 3 9 24 1 6-4-1-3-9v-2h-2l-1-9h-2l-2-5v-5z" fill="#4E9B1F"/>
<path transform="translate(953,169)" d="m0 0h2v2h2l1 3-3 4-5 2-2 3h-2l-2 4-5-1 2-5 5-6z" fill="#4E9B1F"/>
<path transform="translate(849,661)" d="m0 0h2l-1 5-9 18-7 11-3 4-3 5-2 3h-2l2-5 12-20z" fill="#067AB0"/>
<path transform="translate(318,981)" d="m0 0h2v3l-5 1-1 3-6-1v-3z" fill="#0278B3"/>
<path transform="translate(833,693)" d="m0 0v3l-5 8-2 3h-2l2-5 5-8z" fill="#027AB6"/>
</svg>
